<?xml version="1.0" encoding="UTF-8"?>
<!DOCTYPE svg PUBLIC "-//W3C//DTD SVG 1.1//EN" "http://www.w3.org/Graphics/SVG/1.1/DTD/svg11.dtd">
<!-- Favicon: white logo (#fff), transparent background -->
<svg xmlns="http://www.w3.org/2000/svg" xml:space="preserve" width="1000mm" height="1000mm" version="1.1" style="shape-rendering:geometricPrecision; text-rendering:geometricPrecision; image-rendering:optimizeQuality; fill-rule:evenodd; clip-rule:evenodd"
viewBox="0 0 100000 100000"
 xmlns:xlink="http://www.w3.org/1999/xlink">
 <defs>
  <style type="text/css">
   <![CDATA[
    .fil1,.fil2 {fill:#ffffff;fill-rule:nonzero}
   ]]>
  </style>
 </defs>
 <g id="favicon-root">
  <metadata id="CorelCorpID_0Corel-Layer"/>
  <g id="_2539455954480">
   <g>
    <path class="fil1" d="M64835.39 74749.7c-278.69,0 -508.92,-227.24 -518.07,-505.94 -21.2,-616.5 -119.63,-1470.88 9.15,-1696.55 248.42,-434.74 1466.24,-401.4 1467.82,-1230.01l-4.59 -48446.35c0,-610.45 277.2,-1184.56 746.8,-1572.33 2.99,-3.01 6.06,-4.58 9.07,-7.57 2287.26,-1897.97 5948.42,-4377.64 8485.61,-6027.21 904.35,-587.72 1748.09,-1313.29 2605.38,-867.94 448.4,233.27 705.89,721.01 707.41,1226.95l84.88 47610.24c1.49,1105.74 68.1,2213.05 239.27,3306.7 151.48,961.88 383.28,1910.13 849.82,2759.88 1311.75,2391.77 4258.07,2915.92 6801.02,3015.84 277.46,10.64 495.62,239.38 495.62,516.58l0 1398.14c0,286.25 -233.16,518 -518.12,518l-21461.07 0 0 1.57z"/>
    <path class="fil1" d="M35165.96 74749.7c278.7,0 508.93,-227.24 518.08,-505.94 21.2,-616.5 119.63,-1470.88 -9.15,-1696.55 -248.42,-434.74 -1466.25,-401.4 -1467.82,-1230.01l4.59 -48446.35c0,-610.45 -277.2,-1184.56 -746.81,-1572.33 -2.99,-3.01 -6,-4.58 -9.07,-7.57 -2287.25,-1897.97 -5948.41,-4377.64 -8485.61,-6027.21 -904.34,-587.72 -1748.08,-1313.29 -2605.38,-867.94 -448.39,233.27 -705.88,721.01 -707.4,1226.95l-84.88 47610.24c-1.49,1105.74 -68.1,2213.05 -239.3,3306.7 -151.48,961.88 -383.2,1910.13 -849.79,2759.88 -1311.75,2391.77 -4257.95,2915.92 -6801.23,3015.84 -277.2,10.64 -495.31,239.38 -495.31,516.58l0 1398.14c0,286.25 233.26,518 518.04,518l21461.04 0 0 1.57z"/>
    <path class="fil2" d="M62043.75 38010.84l0 10512.34c0,493.85 -269.63,948.25 -701.31,1186.1l-10692.68 5862.05c-404.41,222.73 -895.19,222.73 -1299.61,0l-10692.65 -5862.05c-433.2,-237.85 -701.33,-692.25 -701.33,-1186.1l0 -10512.34c0,-1058.82 1163.35,-1707.17 2064.63,-1149.7l9267.25 5743.95c436.24,271.15 987.58,271.15 1423.84,0l9267.33 -5743.95c901.25,-557.47 2064.53,89.36 2064.53,1149.7z"/>
    <polygon class="fil1" points="14169.99,80013.43 16028.61,82244.65 17887.21,80013.43 18862.7,80013.43 18862.7,85669.85 17769.05,85669.85 17769.05,81697.82 17737.25,81697.82 16101.3,83690.05 15946.8,83690.05 14310.86,81697.82 14279.06,81697.82 14279.06,85669.85 13185.41,85669.85 13185.41,80013.43 "/>
    <path class="fil1" d="M20954.52 80013.43l0 3291.42c0,338.14 49.96,606.07 151.48,805.84 101.52,200.42 266.56,365.4 495.29,494.26 228.74,128.17 496.87,193.62 801.33,193.62 334.74,0 619.52,-62.05 852.81,-184.75 233.3,-122.73 404.41,-289.06 511.99,-501.76 107.5,-212.04 162.05,-505.89 162.05,-879.48l0 -3219.15 1093.68 0 0 3359.6c0,762.19 -228.73,1346.46 -684.71,1755.51 -455.87,409.05 -1101.23,613.56 -1935.82,613.56 -524.13,0 -977.01,-94.07 -1361.73,-278.82 -384.78,-186.12 -678.6,-455.41 -880.07,-807.2 -203,-353.14 -304.49,-766.29 -304.49,-1240.79l0 -3400.36 1096.69 0 1.5 -1.5z"/>
    <path class="fil1" d="M28058.78 80013.43c531.68,0 964.95,146.9 1299.69,440.82 334.74,293.82 501.35,677.03 501.35,1149.7 0,321.11 -83.3,601.3 -248.37,840.52 -166.68,239.3 -412.04,427.47 -739.2,565.17 180.24,96.81 340.79,228.4 481.63,396.79 140.92,166.35 315.14,449.97 522.64,846.73 345.38,686.53 601.37,1157.63 769.5,1418.06l-1219.37 0c-83.33,-124.1 -196.96,-323.17 -339.32,-595.17 -313.54,-601.99 -542.27,-1007.64 -687.67,-1216.95 -145.43,-208.61 -286.35,-357.23 -421.14,-445.17 -134.84,-87.95 -290.83,-131.57 -465.02,-131.57l-396.83 0 0 2388.86 -1093.68 0 0 -5656.29 2037.34 0 -1.55 -1.5zm-246.87 2413.34c286.27,0 510.5,-71.53 674.04,-215.44 163.62,-143.94 245.43,-339.33 245.43,-587.75 0,-248.36 -80.29,-452.88 -242.36,-581.66 -162.1,-128.73 -392.33,-192.32 -692.23,-192.32l-680.12 0 0 1575.11 696.74 0 -1.5 2.06z"/>
    <path class="fil1" d="M34022.4 80013.43l2497.88 5656.42 -1154.29 0 -587.74 -1377.14 -2514.42 0 -546.85 1377.14 -1145.19 0 2332.73 -5656.42 1117.88 0zm-1425.35 3448.91l1826.77 0 -955.82 -2238.61 -870.95 2238.61z"/>
    <path class="fil1" d="M39346.66 80013.43c587.74,0 1111.87,119.64 1570.83,360.51 458.96,240.87 814.91,577.1 1069.41,1011.84 254.5,434.77 380.22,922.48 380.22,1465.03 0,541.99 -127.24,1043.75 -383.24,1471.89 -254.5,428.82 -618.07,758.79 -1087.59,993.99 -469.58,234.53 -1008.86,353.16 -1614.72,353.16l-2303.98 0 0 -5656.42 2369.07 0zm-113.56 4801.5c604.37,0 1089.1,-181.35 1455.66,-543.35 365.01,-364.06 548.35,-839.23 548.35,-1426.92 0,-587.88 -184.83,-1092.29 -552.91,-1445.25 -368.08,-352.93 -864.95,-530.13 -1487.45,-530.13l-1125.51 0 0 3947.68 1161.86 0 0 -2.03z"/>
    <path class="fil1" d="M46811.43 80013.43c518,0 940.63,134.76 1267.87,404.41 327.16,269.63 489.21,607.43 489.21,1011.85 0,259.06 -68.15,487.79 -204.43,684.68 -136.36,196.96 -333.25,353.29 -593.83,469.86l0 48.42c393.85,89.3 701.33,265.19 920.99,528.35 219.66,263.85 330.23,571.3 330.23,925.83 0,313.59 -80.29,593.8 -240.85,840.6 -160.55,246.79 -383.23,432.91 -668.06,556.98 -284.77,124.76 -621.01,186.81 -1005.79,186.81l-2369.09 0 0 -5656.29 2073.75 0 0 -1.5zm-290.83 2347.89c289.29,0 516.5,-69.7 684.68,-206.03 166.64,-137.86 251.44,-328.69 251.44,-574.12 0,-218.09 -77.25,-392.28 -230.23,-519.56 -154.55,-128.71 -356,-192.33 -607.43,-192.33l-786.13 0 0 1493.53 687.67 0 0 -1.49zm254.45 2453.61c369.63,0 649.84,-69.55 837.66,-208.61 189.39,-139.76 283.26,-344.3 283.26,-613.59 0,-240.64 -93.87,-430.18 -281.77,-569.24 -187.81,-139.76 -439.25,-209.31 -755.84,-209.31l-1028.49 0 0 1599.38 943.66 0 1.52 1.37z"/>
    <path class="fil1" d="M50790.76 80013.43l0 3291.42c0,338.14 49.96,606.07 151.48,805.84 101.45,200.42 266.56,365.4 495.3,494.26 228.73,128.17 496.86,193.62 801.32,193.62 334.74,0 619.52,-62.05 852.81,-184.75 233.22,-122.73 404.42,-289.06 511.99,-501.76 107.53,-212.04 162.05,-505.89 162.05,-879.48l0 -3219.15 1093.68 0 0 3359.6c0,762.19 -228.73,1346.46 -684.68,1755.51 -455.97,409.05 -1101.25,613.56 -1935.85,613.56 -524.12,0 -977,-94.07 -1361.78,-278.82 -384.73,-186.12 -678.63,-455.41 -880.07,-807.2 -202.97,-353.14 -304.49,-766.29 -304.49,-1240.79l0 -3400.36 1096.67 0 1.57 -1.5z"/>
    <polygon class="fil1" points="56976.98,80013.43 56976.98,85669.85 55883.3,85669.85 55883.3,80013.43 "/>
    <polygon class="fil1" points="59133.9,80013.43 59133.9,84814.93 61878.63,84814.93 61878.63,85669.85 58040.3,85669.85 58040.3,80013.43 "/>
    <path class="fil1" d="M64788.55 80013.43c587.67,0 1111.79,119.64 1570.75,360.51 459.04,240.87 814.96,577.1 1069.46,1011.84 254.45,434.77 380.17,922.48 380.17,1465.03 0,541.99 -127.24,1043.75 -383.23,1471.89 -254.43,428.82 -618,758.79 -1087.6,993.99 -469.53,234.53 -1008.78,353.16 -1614.72,353.16l-2303.93 0 0 -5656.42 2369.1 0zm-112.09 4801.5c604.39,0 1089.12,-181.35 1455.68,-543.35 365.02,-364.06 548.35,-839.23 548.35,-1426.92 0,-587.88 -184.83,-1092.29 -552.91,-1445.25 -368.08,-352.93 -864.95,-530.13 -1487.5,-530.13l-1125.45 0 0 3947.68 1161.83 0 0 -2.03z"/>
    <polygon class="fil1" points="69740.24,80013.43 69740.24,85669.85 68646.59,85669.85 68646.59,80013.43 "/>
    <polygon class="fil1" points="71763.96,80013.43 75125.21,83960.7 75125.21,80013.43 76194.67,80013.43 76194.67,85669.85 75255.49,85669.85 71874.55,81656.93 71874.55,85669.85 70805.14,85669.85 70805.14,80013.43 "/>
    <path class="fil1" d="M80196.62 79939.17c696.81,0 1387.57,156.07 2072.05,465.09l0 999.74c-685.84,-348.45 -1360.11,-522.63 -2023.59,-522.63 -413.48,0 -780.04,81.81 -1101.23,246.92 -321.1,165.12 -569.52,401.42 -746.72,710.4 -177.25,309.02 -265.12,654.2 -265.12,1034.62 0,577.44 192.38,1042.4 577.15,1394.84 384.73,353.17 890.64,529.05 1520.8,529.05 172.69,0 337.8,-15 495.34,-44.32 157.49,-29.99 346.88,-85.88 564.97,-169.75l0 -938.77 -934.59 0 0 -854.23 2028.19 0 0 2332.28c-278.82,194.28 -612.2,347 -1002.85,456.07 -389.13,109.1 -795.12,163.62 -1216.17,163.62 -596.82,0 -1137.57,-122.7 -1622.29,-368.13 -484.73,-245.43 -861.94,-589.03 -1133.08,-1032.84 -271.12,-442.48 -407.48,-936.07 -407.48,-1481.45 0,-545.33 136.36,-1054.28 410.54,-1502.66 274.14,-448.39 655.85,-796.76 1145.14,-1045.21 489.24,-248.42 1036.07,-372.64 1637.44,-372.64l1.5 0z"/>
    <path class="fil1" d="M84982.04 79939.17c550.84,0 1081.26,137.85 1589.84,413.56l0 972.45c-585.63,-352.93 -1105.12,-530.13 -1558.49,-530.13 -275.42,0 -490.86,53.05 -644.92,159.06 -156.12,106 -233.16,248.42 -233.16,427.11 0,213.58 143.83,410.55 432.91,590.81 80.44,54.52 391.99,204.46 934.67,454.74 464.97,217.47 798.34,461.54 1004.22,728.09 204.54,266.56 307.47,587.67 307.47,963.33 0,486.76 -174.52,878.76 -524.25,1177.37 -349.76,297.92 -802.44,446.54 -1358.75,446.54 -362,0 -672.21,-39.52 -932.63,-119.3 -261.1,-80.44 -552.91,-216.8 -877.42,-410.42l0 -1077.16c604.73,501.09 1173.97,752.66 1708.48,752.66 266.56,0 483.36,-57.26 648.35,-173.85 165.66,-117.27 246.8,-269.97 246.8,-462.24 0,-262.46 -143.86,-475.84 -428.15,-639.46 -237.93,-130.22 -544.04,-284.31 -919.7,-464.96 -445.18,-203.18 -778.55,-439.05 -998.08,-709.03 -219.51,-269.42 -330.65,-582.96 -330.65,-938.98 0,-475.58 177.26,-852.78 530.42,-1135.99 353.13,-281.79 820.83,-422.63 1401,-422.63l2.04 -1.57z"/>
   </g>
  </g>
 </g>
</svg>
