<svg width="341" height="92" viewBox="0 0 341 92" fill="none" xmlns="http://www.w3.org/2000/svg">
<path d="M77.5439 91.1313C77.1266 91.1313 76.782 90.7912 76.7683 90.3739C76.7366 89.451 76.5892 88.1721 76.782 87.8342C77.1539 87.1834 78.977 87.2333 78.9793 85.9929L78.9725 13.4671C78.9725 12.5532 79.3875 11.6938 80.0904 11.1133C80.095 11.1087 80.0995 11.1065 80.104 11.1019C83.5282 8.26058 89.009 4.54846 92.8073 2.07901C94.1611 1.19917 95.4242 0.112966 96.7077 0.779651C97.3789 1.12887 97.7644 1.85905 97.7666 2.61644L97.8936 73.8905C97.8959 75.5459 97.9957 77.2035 98.2519 78.8407C98.4787 80.2807 98.8256 81.7002 99.5241 82.9724C101.488 86.553 105.898 87.3376 109.706 87.4872C110.121 87.5031 110.447 87.8455 110.447 88.2605V90.3535C110.447 90.7821 110.098 91.1291 109.672 91.1291H77.5439V91.1313Z" fill="#3E4095"/>
<path d="M33.128 91.1313C33.5452 91.1313 33.8899 90.7912 33.9035 90.3739C33.9353 89.451 34.0827 88.1721 33.8899 87.8342C33.518 87.1834 31.6948 87.2333 31.6926 85.9929L31.6994 13.4671C31.6994 12.5532 31.2844 11.6938 30.5814 11.1133C30.5769 11.1087 30.5724 11.1065 30.5678 11.1019C27.1437 8.26058 21.6628 4.54846 17.8645 2.07901C16.5107 1.19917 15.2477 0.112966 13.9642 0.779651C13.293 1.12887 12.9075 1.85905 12.9052 2.61644L12.7782 73.8905C12.776 75.5459 12.6762 77.2035 12.4199 78.8407C12.1932 80.2807 11.8462 81.7002 11.1478 82.9724C9.18402 86.553 4.77346 87.3376 0.966103 87.4872C0.551126 87.5031 0.224609 87.8455 0.224609 88.2605V90.3535C0.224609 90.7821 0.573808 91.1291 1.00012 91.1291H33.128V91.1313Z" fill="#3E4095"/>
<path d="M73.3646 36.133V51.8704C73.3646 52.6096 72.961 53.2899 72.3147 53.6459L56.3075 62.4217C55.702 62.755 54.9673 62.755 54.3619 62.4217L38.3546 53.6459C37.7061 53.2899 37.3047 52.6096 37.3047 51.8704V36.133C37.3047 34.5479 39.0462 33.5773 40.3955 34.4118L54.2689 43.0107C54.922 43.4166 55.7474 43.4166 56.4005 43.0107L70.2738 34.4118C71.6231 33.5773 73.3646 34.5456 73.3646 36.133Z" fill="#D1AE6C"/>
<path d="M139.849 13.5176L148.938 24.4287L158.027 13.5176H162.797V41.177H157.449V21.7547H157.294L149.294 31.4955H148.538L140.538 21.7547H140.382V41.177H135.034V13.5176H139.849Z" fill="#3E4095"/>
<path d="M173.028 13.5176V29.614C173.028 31.2658 173.272 32.5769 173.768 33.5547C174.265 34.5325 175.072 35.3399 176.191 35.9696C177.309 36.5992 178.62 36.9177 180.109 36.9177C181.746 36.9177 183.139 36.614 184.28 36.014C185.42 35.414 186.257 34.5992 186.783 33.5621C187.309 32.5251 187.576 31.0881 187.576 29.2584V13.5176H192.924V29.9473C192.924 33.6733 191.806 36.5326 189.576 38.5326C187.346 40.5326 184.191 41.5326 180.109 41.5326C177.546 41.5326 175.331 41.0733 173.45 40.1696C171.568 39.2585 170.131 37.94 169.146 36.2214C168.154 34.4955 167.657 32.4733 167.657 30.1547V13.525H173.02L173.028 13.5176Z" fill="#3E4095"/>
<path d="M207.769 13.5176C210.369 13.5176 212.488 14.2361 214.125 15.6731C215.762 17.1102 216.577 18.9843 216.577 21.2954C216.577 22.8658 216.169 24.2362 215.362 25.4065C214.547 26.5769 213.347 27.4954 211.747 28.1695C212.628 28.6436 213.414 29.2881 214.102 30.1103C214.791 30.9251 215.643 32.3103 216.658 34.251C218.347 37.6066 219.599 39.9103 220.421 41.1844H214.458C214.051 40.577 213.495 39.6066 212.799 38.2733C211.265 35.3325 210.147 33.3473 209.436 32.3251C208.725 31.3029 208.036 30.577 207.376 30.1473C206.717 29.7177 205.954 29.5029 205.102 29.5029H203.162V41.1844H197.813V13.525H207.776L207.769 13.5176ZM206.562 25.3176C207.962 25.3176 209.058 24.9695 209.858 24.2658C210.658 23.5621 211.058 22.6065 211.058 21.3917C211.058 20.1769 210.665 19.1769 209.873 18.5472C209.08 17.9176 207.954 17.6065 206.488 17.6065H203.162V25.3102H206.569L206.562 25.3176Z" fill="#3E4095"/>
<path d="M236.932 13.5176L249.147 41.177H243.502L240.628 34.4436H228.332L225.658 41.177H220.058L231.465 13.5176H236.932ZM229.961 30.3844H238.895L234.221 19.4361L229.961 30.3844Z" fill="#3E4095"/>
<path d="M262.962 13.5176C265.836 13.5176 268.399 14.1028 270.644 15.2806C272.888 16.4583 274.629 18.1028 275.873 20.2287C277.118 22.3547 277.733 24.7399 277.733 27.3917C277.733 30.0436 277.11 32.4955 275.859 34.5918C274.614 36.6881 272.836 38.3029 270.54 39.4511C268.244 40.5992 265.607 41.177 262.644 41.177H251.377V13.5176H262.962ZM262.414 36.9992C265.37 36.9992 267.74 36.1103 269.533 34.3399C271.318 32.5621 272.214 30.2362 272.214 27.3621C272.214 24.488 271.31 22.0214 269.51 20.2954C267.71 18.5695 265.281 17.7028 262.236 17.7028H256.733V37.0066H262.414V36.9992Z" fill="#3E4095"/>
<path d="M145.175 50.1709C147.708 50.1709 149.775 50.8301 151.375 52.1487C152.975 53.4672 153.768 55.1191 153.768 57.0968C153.768 58.3635 153.434 59.4821 152.768 60.445C152.101 61.408 151.138 62.171 149.864 62.7413V62.9784C151.79 63.4154 153.294 64.2747 154.368 65.5636C155.442 66.8525 155.982 68.3562 155.982 70.0896C155.982 71.6229 155.59 72.9933 154.805 74.2007C154.02 75.4081 152.931 76.3192 151.538 76.9266C150.145 77.534 148.501 77.8377 146.619 77.8377H135.034V50.1783H145.175V50.1709ZM143.745 61.6525C145.16 61.6525 146.271 61.3117 147.094 60.6451C147.908 59.971 148.323 59.0376 148.323 57.8376C148.323 56.7709 147.945 55.9191 147.197 55.2968C146.442 54.6672 145.456 54.3561 144.227 54.3561H140.382V61.6599H143.745V61.6525ZM144.997 73.6525C146.805 73.6525 148.175 73.3118 149.094 72.6303C150.019 71.9488 150.479 70.9488 150.479 69.6303C150.479 68.4525 150.019 67.5266 149.101 66.8451C148.182 66.1636 146.953 65.8229 145.405 65.8229H140.375V73.6451H144.99L144.997 73.6525Z" fill="#3E4095"/>
<path d="M164.636 50.1709V66.2673C164.636 67.9191 164.88 69.2303 165.377 70.2081C165.873 71.1858 166.68 71.9933 167.799 72.6229C168.917 73.2525 170.229 73.5711 171.718 73.5711C173.355 73.5711 174.747 73.2673 175.888 72.6673C177.029 72.0673 177.866 71.2525 178.392 70.2155C178.918 69.1784 179.184 67.7414 179.184 65.9117V50.1709H184.532V66.6006C184.532 70.3266 183.414 73.1859 181.184 75.1859C178.955 77.1859 175.799 78.1859 171.718 78.1859C169.155 78.1859 166.94 77.7266 165.058 76.8229C163.177 75.9118 161.74 74.5933 160.754 72.8748C159.762 71.1488 159.266 69.1266 159.266 66.8081V50.1783H164.629L164.636 50.1709Z" fill="#3E4095"/>
<path d="M194.888 50.1709V77.8304H189.54V50.1709H194.888Z" fill="#3E4095"/>
<path d="M205.437 50.1709V73.6525H218.859V77.8304H200.089V50.1709H205.437Z" fill="#3E4095"/>
<path d="M233.089 50.1709C235.963 50.1709 238.526 50.7561 240.771 51.9339C243.015 53.1117 244.756 54.7561 246 56.882C247.245 59.008 247.86 61.3932 247.86 64.045C247.86 66.6969 247.237 69.1488 245.986 71.2451C244.741 73.3414 242.963 74.9562 240.667 76.1044C238.371 77.2526 235.734 77.8304 232.771 77.8304H221.504V50.1709H233.089ZM232.534 73.6525C235.489 73.6525 237.86 72.7636 239.652 70.9932C241.437 69.2155 242.334 66.8895 242.334 64.0154C242.334 61.1413 241.43 58.6747 239.63 56.9487C237.83 55.2228 235.4 54.3561 232.356 54.3561H226.852V73.66H232.534V73.6525Z" fill="#3E4095"/>
<path d="M257.303 50.1709V77.8304H251.955V50.1709H257.303Z" fill="#3E4095"/>
<path d="M267.199 50.1709L283.636 69.4747V50.1709H288.865V77.8304H284.273L267.739 58.208V77.8304H262.51V50.1709H267.199Z" fill="#3E4095"/>
<path d="M308.436 49.8066C311.843 49.8066 315.221 50.5696 318.569 52.0807V56.9696C315.214 55.2659 311.917 54.4141 308.673 54.4141C306.651 54.4141 304.858 54.8141 303.288 55.6215C301.717 56.4289 300.502 57.5845 299.636 59.0956C298.769 60.6067 298.339 62.2956 298.339 64.1549C298.339 66.9771 299.28 69.2512 301.162 70.9772C303.043 72.7031 305.517 73.5623 308.599 73.5623C309.443 73.5623 310.251 73.4882 311.021 73.3475C311.791 73.1994 312.717 72.9253 313.784 72.5179V67.9252H309.214V63.7475H319.132V75.1549C317.769 76.1031 316.14 76.8512 314.228 77.3846C312.325 77.9179 310.34 78.1846 308.28 78.1846C305.362 78.1846 302.717 77.5846 300.347 76.3846C297.977 75.1846 296.132 73.5031 294.806 71.3327C293.48 69.1697 292.813 66.7549 292.813 64.0882C292.813 61.4215 293.48 58.9326 294.821 56.74C296.162 54.5474 298.028 52.8437 300.421 51.6288C302.814 50.414 305.488 49.8066 308.428 49.8066H308.436Z" fill="#3E4095"/>
<path d="M331.836 49.8066C334.532 49.8066 337.125 50.4807 339.614 51.8289V56.5844C336.747 54.8585 334.206 53.9918 331.991 53.9918C330.643 53.9918 329.591 54.2511 328.836 54.7696C328.073 55.2882 327.695 55.9844 327.695 56.8585C327.695 57.903 328.399 58.8659 329.813 59.7474C330.206 60.0141 331.732 60.7474 334.384 61.9697C336.658 63.0363 338.288 64.2289 339.295 65.5326C340.295 66.8364 340.799 68.4067 340.799 70.2438C340.799 72.6216 339.947 74.5401 338.236 75.9994C336.525 77.4587 334.31 78.1846 331.591 78.1846C329.821 78.1846 328.302 77.992 327.028 77.5994C325.754 77.2068 324.325 76.5401 322.739 75.592V70.3253C325.695 72.7772 328.48 74.0068 331.095 74.0068C332.399 74.0068 333.458 73.7253 334.265 73.1549C335.073 72.5845 335.473 71.8364 335.473 70.8956C335.473 69.6141 334.769 68.5697 333.376 67.7697C332.213 67.1327 330.717 66.3771 328.88 65.4956C326.702 64.503 325.073 63.3475 323.999 62.0289C322.924 60.7104 322.384 59.1771 322.384 57.4363C322.384 55.1104 323.25 53.2659 324.976 51.8807C326.702 50.5029 328.991 49.8141 331.828 49.8141L331.836 49.8066Z" fill="#3E4095"/>
</svg>
